HIERARCHY
ROOT Hips
{
  OFFSET 0 0 0
  CHANNELS 6 Xposition Yposition Zposition Zrotation Yrotation Xrotation
  JOINT LeftThigh
  {
    OFFSET 8.409438 0 -5.917753
    CHANNELS 3 Zrotation Yrotation Xrotation
    JOINT LeftLeg
    {
      OFFSET 0 0 -42.358652
      CHANNELS 3 Zrotation Yrotation Xrotation
      JOINT LeftFoot
      {
        OFFSET 0 0 -39.357303
        CHANNELS 3 Zrotation Yrotation Xrotation
      }
    }
  }
  JOINT RightThigh
  {
    OFFSET -8.409438 0 -5.917753
    CHANNELS 3 Zrotation Yrotation Xrotation
    JOINT RightLeg
    {
      OFFSET 0 0 -42.358652
      CHANNELS 3 Zrotation Yrotation Xrotation
      JOINT RightFoot
      {
        OFFSET 0 0 -39.357303
        CHANNELS 3 Zrotation Yrotation Xrotation
      }
    }
  }
  JOINT SpineLow
  {
    OFFSET 0 0 4.719101
    CHANNELS 3 Zrotation Yrotation Xrotation
    JOINT SpineMid
    {
      OFFSET 0 0 12.899191
      CHANNELS 3 Zrotation Yrotation Xrotation
      JOINT Chest
      {
        OFFSET 0 0 12.899191
        CHANNELS 3 Zrotation Yrotation Xrotation
        JOINT LeftShoulder
        {
          OFFSET 7.550562 1.41573 9.438202
          CHANNELS 3 Zrotation Yrotation Xrotation
          JOINT LeftArm
          {
            OFFSET 9.155056 0 4.247191
            CHANNELS 3 Zrotation Yrotation Xrotation
            JOINT LeftForearm
            {
              OFFSET 0 0 25.771955
              CHANNELS 3 Zrotation Yrotation Xrotation
              JOINT LeftHand
              {
                OFFSET 0 0 25.197169
                CHANNELS 3 Zrotation Yrotation Xrotation
              }
            }
          }
        }
        JOINT RightShoulder
        {
          OFFSET -7.550562 1.41573 9.438202
          CHANNELS 3 Zrotation Yrotation Xrotation
          JOINT RightArm
          {
            OFFSET -9.155056 0 4.247191
            CHANNELS 3 Zrotation Yrotation Xrotation
            JOINT RightForearm
            {
              OFFSET 0 0 -25.771955
              CHANNELS 3 Zrotation Yrotation Xrotation
              JOINT RightHand
              {
                OFFSET 0 0 -25.197169
                CHANNELS 3 Zrotation Yrotation Xrotation
              }
            }
          }
        }
        JOINT Neck
        {
          OFFSET 0 0 15.101124
          CHANNELS 3 Zrotation Yrotation Xrotation
          JOINT Head
          {
            OFFSET 0 0 11.325843
            CHANNELS 3 Zrotation Yrotation Xrotation
            End Site
            {
              OFFSET 0 0 14.157303
            }
          }
        }
      }
    }
  }
}
MOTION
Frames: 8
Frame Time: 0.0
0.0  101.685394  0.0  -0.712561  -24.668406  -100.354583  19.190622  -25.656852  -39.069897  8.765902  10.172722  62.543411  2.497462  3.270294  5.043809  -0.474606  18.505806  6.062668  -13.079816  8.957406  31.811127  5.119504  16.243113  -2.317075  -1.620203  -0.46166  2.861677  -4.47648  -1.067739  7.849637  -4.47648  -1.067739  7.849637  0.712861  25.138021  1.329422  -146.584347  53.32001  -107.925646  -26.229884  -19.850856  96.526142  92.355045  3.245868  -18.154401  4.002516  -6.583195  13.857869  82.828658  41.978861  34.875171  7.733001  26.3148  -92.341695  55.816866  -2.515785  24.174959  10.186741  1.699829  -6.697535  7.659214  1.163769  -5.052788  
0.0  101.685394  0.0  -0.585616  -23.511291  -99.979061  17.931464  -25.104021  -39.448439  9.02368  9.748435  62.511452  2.218617  3.275485  4.847425  0.365885  18.317937  6.614888  -14.25957  9.034395  31.332885  4.97432  16.391402  -2.279208  -1.605363  -0.4648  2.805311  -4.435553  -1.081878  7.695644  -4.435553  -1.081878  7.695644  0.975388  25.312718  1.514492  -148.418243  52.477027  -110.263793  -25.802013  -18.448452  98.391734  92.646775  3.60051  -19.633742  3.593511  -6.864699  13.12186  83.029612  43.347786  34.703199  7.397657  24.81472  -93.869512  56.080877  -2.779238  24.192912  9.787693  1.624698  -6.853892  7.359595  1.109245  -5.167672  
0.0  101.685394  0.0  -0.514333  -22.045383  -99.417363  16.441259  -24.53088  -39.959223  9.318775  9.360721  62.407454  1.721056  3.262304  4.585533  0.030452  18.321978  6.694483  -14.608101  8.941099  30.87087  4.608874  16.516896  -2.25721  -1.56129  -0.467166  2.73085  -4.314458  -1.098366  7.49173  -4.314458  -1.098367  7.49173  0.779651  25.169432  1.45685  -152.231755  52.340311  -112.518647  -25.910921  -18.257401  98.801724  93.000581  4.020092  -21.326158  3.736476  -6.907534  12.716809  81.847685  45.215799  33.585077  6.81502  23.403613  -95.418089  56.297469  -3.199366  24.43048  9.220479  1.553611  -7.030494  6.933895  1.059577  -5.29742  
0.0  101.685394  0.0  -0.2538  -21.506127  -99.327334  15.736627  -24.099987  -40.023684  9.672327  8.947947  62.322558  1.276795  3.269445  4.347853  1.315738  18.049226  7.527588  -15.51375  9.007528  30.167656  4.467112  16.599243  -2.239214  -1.360854  -0.436268  2.706675  -3.763479  -1.038196  7.420849  -3.763479  -1.038196  7.420849  0.754488  25.06764  1.511429  -156.513774  52.217348  -115.153866  -26.041437  -17.953624  99.284468  93.350722  4.491652  -23.114003  3.663387  -7.06368  12.213465  80.96141  46.962343  32.569348  6.085853  21.887535  -96.948813  56.585106  -3.732537  24.821613  8.623626  1.422687  -7.148565  6.485081  0.966517  -5.382496  
0.0  101.685394  0.0  -0.172109  -20.159481  -98.89446  14.442176  -23.622531  -40.378872  9.958411  8.692523  62.174003  0.934231  3.225225  4.13713  1.499713  17.917124  7.966119  -16.307119  8.960778  29.495872  4.086723  16.730646  -2.258355  -1.253809  -0.41861  2.635702  -3.468319  -1.0058  7.224424  -3.468319  -1.0058  7.224424  0.6771  24.682312  1.619216  -161.212362  51.831937  -118.227632  -26.202094  -17.503105  99.83821  93.660538  4.994955  -24.903174  3.799845  -7.22313  11.862654  79.511651  48.957589  31.131413  5.364867  20.09751  -98.418221  56.970528  -4.232687  25.233539  7.964662  1.25899  -7.266573  5.98923  0.849844  -5.46722  
0.0  101.685394  0.0  -0.013112  -19.073505  -98.602842  13.486171  -23.156058  -40.586046  10.171424  8.596456  61.979666  0.724249  3.135526  3.951326  2.046338  17.734906  8.572913  -17.189466  8.957837  28.752053  3.681308  16.774086  -2.272403  -1.131438  -0.387105  2.56783  -3.129933  -0.936452  7.03569  -3.129932  -0.936452  7.03569  0.686347  24.325298  1.71106  -165.883162  51.274422  -121.635677  -26.304424  -16.783756  100.531341  93.941254  5.49406  -26.63943  3.330367  -7.701188  11.207392  79.412253  50.643399  30.441294  4.748801  17.951492  -99.791844  57.436784  -4.610225  25.544092  7.405148  1.030131  -7.297392  5.566953  0.6844  -5.486333  
0.0  101.685394  0.0  0.150348  -17.772589  -98.223987  12.486937  -22.656235  -40.837159  10.277821  8.782892  61.653897  0.606425  3.058339  3.758392  2.270883  17.642711  9.059108  -18.071285  8.907051  27.979677  3.278575  16.868838  -2.275904  -1.049042  -0.361063  2.456534  -2.90086  -0.879077  6.729268  -2.90086  -0.879077  6.729268  1.117568  23.956651  2.207382  -170.741092  50.438049  -125.062611  -26.345709  -15.844711  101.284759  94.24823  5.891802  -28.305562  3.730855  -7.777383  11.259493  77.819897  52.920418  28.64307  4.216976  15.501567  -101.040461  57.920979  -4.871946  25.638717  6.877818  0.847568  -7.233608  5.16916  0.554435  -5.435462  
0.0  101.685394  0.0  0.393292  -16.53341  -97.866078  11.689565  -22.095777  -41.036956  10.30712  9.129412  61.249099  0.553585  3.005044  3.518328  2.505923  17.657806  9.573346  -18.938386  8.79507  27.165884  2.838389  16.867253  -2.255415  -0.969911  -0.319954  2.311772  -2.679051  -0.780836  6.330935  -2.679051  -0.780836  6.330935  1.630815  23.534187  2.84696  -173.71859  48.770938  -128.907885  -25.424152  -13.52637  103.366457  94.572052  6.130038  -30.002479  4.148895  -7.941604  11.332215  76.381813  55.061316  26.922632  3.68367  12.907869  -102.170993  58.400768  -5.121175  25.508121  6.412677  0.631467  -7.037936  4.817489  0.399858  -5.285714  
